<svg width="108" height="80" viewBox="0 0 108 80" fill="none" xmlns="http://www.w3.org/2000/svg">
<g clip-path="url(#clip0_5492_135824)">
<path d="M0.144318 2.30909C0.144318 1.11352 1.11352 0.144318 2.30909 0.144318H105.691C106.886 0.144318 107.856 1.11352 107.856 2.30909V79.8557H0.144318V2.30909Z" fill="white" stroke="#E5E5E5" stroke-width="0.288636"/>
<path d="M0.144318 2.30909C0.144318 1.11352 1.11352 0.144318 2.30909 0.144318H106.268C107.145 0.144318 107.856 0.855066 107.856 1.73182V5.85568H0.144318V2.30909Z" fill="#F5F5F5" stroke="#E5E5E5" stroke-width="0.288636"/>
<rect x="2.70312" y="2.125" width="1.73182" height="1.73182" rx="0.865909" fill="#EF4444"/>
<rect x="5.00781" y="2.125" width="1.73182" height="1.73182" rx="0.865909" fill="#FCD34D"/>
<rect x="7.32031" y="2.125" width="1.73182" height="1.73182" rx="0.865909" fill="#4ADE80"/>
<mask id="mask0_5492_135824" style="mask-type:alpha" maskUnits="userSpaceOnUse" x="31" y="18" width="47" height="44">
<rect x="31.0547" y="18" width="46.3656" height="44" fill="#D9D9D9"/>
</mask>
<g mask="url(#mask0_5492_135824)">
<path d="M51.6412 44.8737L47.3894 40.6219C47.136 40.3685 46.8174 40.2389 46.4338 40.233C46.0502 40.2271 45.7258 40.3568 45.4606 40.6219C45.1955 40.8871 45.0629 41.2085 45.0629 41.5863C45.0629 41.964 45.1955 42.2855 45.4606 42.5506L50.4832 47.5732C50.814 47.904 51.2 48.0694 51.6412 48.0694C52.0823 48.0694 52.4683 47.904 52.7991 47.5732L62.9815 37.3908C63.2349 37.1374 63.3645 36.8189 63.3704 36.4352C63.3763 36.0516 63.2466 35.7272 62.9815 35.4621C62.7163 35.1969 62.3949 35.0644 62.0171 35.0644C61.6394 35.0644 61.3179 35.1969 61.0528 35.4621L51.6412 44.8737ZM54.2417 58.3328C51.8369 58.3328 49.5765 57.8764 47.4606 56.9638C45.3445 56.0511 43.5039 54.8125 41.9387 53.248C40.3734 51.6834 39.1342 49.8436 38.2212 47.7285C37.3081 45.6135 36.8516 43.3535 36.8516 40.9488C36.8516 38.544 37.3079 36.2836 38.2206 34.1676C39.1332 32.0516 40.3718 30.2109 41.9364 28.6457C43.501 27.0804 45.3408 25.8413 47.4558 24.9282C49.5709 24.0151 51.8308 23.5586 54.2356 23.5586C56.6404 23.5586 58.9008 24.0149 61.0168 24.9276C63.1328 25.8403 64.9734 27.0789 66.5386 28.6434C68.1039 30.208 69.3431 32.0478 70.2561 34.1629C71.1692 36.2779 71.6258 38.5378 71.6258 40.9426C71.6258 43.3474 71.1694 45.6078 70.2567 47.7238C69.3441 49.8398 68.1055 51.6804 66.5409 53.2457C64.9764 54.8109 63.1365 56.0501 61.0215 56.9632C58.9064 57.8763 56.6465 58.3328 54.2417 58.3328ZM54.2387 55.5875C58.3262 55.5875 61.7883 54.1691 64.6252 51.3322C67.462 48.4954 68.8805 45.0332 68.8805 40.9457C68.8805 36.8582 67.462 33.396 64.6252 30.5592C61.7883 27.7223 58.3262 26.3039 54.2387 26.3039C50.1512 26.3039 46.689 27.7223 43.8521 30.5592C41.0153 33.396 39.5969 36.8582 39.5969 40.9457C39.5969 45.0332 41.0153 48.4954 43.8521 51.3322C46.689 54.1691 50.1512 55.5875 54.2387 55.5875Z" fill="#A3A3A3"/>
</g>
</g>
<defs>
<clipPath id="clip0_5492_135824">
<rect width="108" height="80" fill="white"/>
</clipPath>
</defs>
</svg>
