<svg width="108" height="80" viewBox="0 0 108 80" fill="none" xmlns="http://www.w3.org/2000/svg">
<g clip-path="url(#clip0_5160_64883)">
<path d="M0.144318 2.30909C0.144318 1.11352 1.11352 0.144318 2.30909 0.144318H105.691C106.886 0.144318 107.856 1.11352 107.856 2.30909V79.8557H0.144318V2.30909Z" fill="white" stroke="#E5E5E5" stroke-width="0.288636"/>
<path d="M0.144318 2.30909C0.144318 1.11352 1.11352 0.144318 2.30909 0.144318H106.268C107.145 0.144318 107.856 0.855066 107.856 1.73182V5.85568H0.144318V2.30909Z" fill="#F5F5F5" stroke="#E5E5E5" stroke-width="0.288636"/>
<rect x="2.70312" y="2.125" width="1.73182" height="1.73182" rx="0.865909" fill="#EF4444"/>
<rect x="5.00781" y="2.125" width="1.73182" height="1.73182" rx="0.865909" fill="#FCD34D"/>
<rect x="7.32031" y="2.125" width="1.73182" height="1.73182" rx="0.865909" fill="#4ADE80"/>
<path d="M26.5547 40H83.2214" stroke="#D4D4D4" stroke-width="5.66667" stroke-linecap="round"/>
<path d="M26.5547 40H51.1102" stroke="#525252" stroke-width="5.66667" stroke-linecap="round"/>
</g>
<defs>
<clipPath id="clip0_5160_64883">
<rect width="108" height="80" fill="white"/>
</clipPath>
</defs>
</svg>
