<svg width="108" height="80" viewBox="0 0 108 80" fill="none" xmlns="http://www.w3.org/2000/svg">
<g clip-path="url(#clip0_5160_64788)">
<path d="M0.144318 2.30909C0.144318 1.11352 1.11352 0.144318 2.30909 0.144318H105.691C106.886 0.144318 107.856 1.11352 107.856 2.30909V79.8557H0.144318V2.30909Z" fill="white" stroke="#E5E5E5" stroke-width="0.288636"/>
<path d="M0.144318 2.30909C0.144318 1.11352 1.11352 0.144318 2.30909 0.144318H106.268C107.145 0.144318 107.856 0.855066 107.856 1.73182V5.85568H0.144318V2.30909Z" fill="#F5F5F5" stroke="#E5E5E5" stroke-width="0.288636"/>
<rect x="2.70312" y="2.125" width="1.73182" height="1.73182" rx="0.865909" fill="#EF4444"/>
<rect x="5.00781" y="2.125" width="1.73182" height="1.73182" rx="0.865909" fill="#FCD34D"/>
<rect x="7.32031" y="2.125" width="1.73182" height="1.73182" rx="0.865909" fill="#4ADE80"/>
<path d="M48.8118 30.5455V48H45.6499V33.6222H45.5476L41.4652 36.2301V33.3324L45.8033 30.5455H48.8118ZM53.4836 48V45.7159L59.5433 39.7756C60.1228 39.1903 60.6058 38.6705 60.9922 38.2159C61.3785 37.7614 61.6683 37.321 61.8615 36.8949C62.0547 36.4687 62.1512 36.0142 62.1512 35.5312C62.1512 34.9801 62.0262 34.5085 61.7762 34.1165C61.5262 33.7188 61.1825 33.4119 60.745 33.196C60.3075 32.9801 59.8103 32.8722 59.2535 32.8722C58.6797 32.8722 58.1768 32.9915 57.745 33.2301C57.3132 33.4631 56.978 33.7955 56.7393 34.2273C56.5064 34.6591 56.3899 35.1733 56.3899 35.7699H53.3814C53.3814 34.6619 53.6342 33.6989 54.1399 32.8807C54.6456 32.0625 55.3416 31.429 56.228 30.9801C57.12 30.5312 58.1427 30.3068 59.2961 30.3068C60.4666 30.3068 61.495 30.5256 62.3814 30.9631C63.2677 31.4006 63.9552 32 64.4439 32.7614C64.9382 33.5227 65.1853 34.392 65.1853 35.3693C65.1853 36.0227 65.0603 36.6648 64.8103 37.2955C64.5603 37.9261 64.12 38.625 63.4893 39.392C62.8643 40.1591 61.9865 41.0881 60.8558 42.179L57.8473 45.2386V45.358H65.4495V48H53.4836Z" fill="#737373"/>
</g>
<defs>
<clipPath id="clip0_5160_64788">
<rect width="108" height="80" fill="white"/>
</clipPath>
</defs>
</svg>
