<svg width="108" height="80" viewBox="0 0 108 80" fill="none" xmlns="http://www.w3.org/2000/svg">
<g clip-path="url(#clip0_5160_64904)">
<path d="M0.144318 2.30909C0.144318 1.11352 1.11352 0.144318 2.30909 0.144318H105.691C106.886 0.144318 107.856 1.11352 107.856 2.30909V79.8557H0.144318V2.30909Z" fill="white" stroke="#E5E5E5" stroke-width="0.288636"/>
<path d="M0.144318 2.30909C0.144318 1.11352 1.11352 0.144318 2.30909 0.144318H106.268C107.145 0.144318 107.856 0.855066 107.856 1.73182V5.85568H0.144318V2.30909Z" fill="#F5F5F5" stroke="#E5E5E5" stroke-width="0.288636"/>
<rect x="2.70312" y="2.125" width="1.73182" height="1.73182" rx="0.865909" fill="#EF4444"/>
<rect x="5.00781" y="2.125" width="1.73182" height="1.73182" rx="0.865909" fill="#FCD34D"/>
<rect x="7.32031" y="2.125" width="1.73182" height="1.73182" rx="0.865909" fill="#4ADE80"/>
<g clip-path="url(#clip1_5160_64904)">
<circle cx="54.9411" cy="40.027" r="15.1351" stroke="#E5E5E5" stroke-width="3.78378"/>
<mask id="path-7-inside-1_5160_64904" fill="white">
<path d="M43.9218 53.0058C46.0076 54.7775 48.4897 56.0203 51.1578 56.629C53.8259 57.2377 56.6015 57.1943 59.2492 56.5024C61.897 55.8106 64.3391 54.4908 66.3684 52.6547C68.3978 50.8187 69.9547 48.5205 70.9072 45.955C71.8598 43.3894 72.1799 40.6321 71.8404 37.9165C71.501 35.201 70.512 32.6073 68.9573 30.3551C67.4025 28.103 65.3278 26.2588 62.909 24.9788C60.4901 23.6987 57.7983 23.0206 55.0617 23.0018L55.0362 26.713C57.1764 26.7277 59.2814 27.258 61.1731 28.259C63.0647 29.2601 64.6872 30.7023 65.9031 32.4636C67.1189 34.2248 67.8924 36.2532 68.1578 38.3769C68.4233 40.5005 68.1729 42.6569 67.428 44.6632C66.6831 46.6696 65.4655 48.4668 63.8785 49.9027C62.2915 51.3385 60.3817 52.3707 58.3111 52.9117C56.2404 53.4527 54.0698 53.4867 51.9832 53.0107C49.8967 52.5347 47.9556 51.5627 46.3244 50.1772L43.9218 53.0058Z"/>
</mask>
<path d="M43.9218 53.0058C46.0076 54.7775 48.4897 56.0203 51.1578 56.629C53.8259 57.2377 56.6015 57.1943 59.2492 56.5024C61.897 55.8106 64.3391 54.4908 66.3684 52.6547C68.3978 50.8187 69.9547 48.5205 70.9072 45.955C71.8598 43.3894 72.1799 40.6321 71.8404 37.9165C71.501 35.201 70.512 32.6073 68.9573 30.3551C67.4025 28.103 65.3278 26.2588 62.909 24.9788C60.4901 23.6987 57.7983 23.0206 55.0617 23.0018L55.0362 26.713C57.1764 26.7277 59.2814 27.258 61.1731 28.259C63.0647 29.2601 64.6872 30.7023 65.9031 32.4636C67.1189 34.2248 67.8924 36.2532 68.1578 38.3769C68.4233 40.5005 68.1729 42.6569 67.428 44.6632C66.6831 46.6696 65.4655 48.4668 63.8785 49.9027C62.2915 51.3385 60.3817 52.3707 58.3111 52.9117C56.2404 53.4527 54.0698 53.4867 51.9832 53.0107C49.8967 52.5347 47.9556 51.5627 46.3244 50.1772L43.9218 53.0058Z" fill="#D9D9D9" stroke="#737373" stroke-width="3.78378" mask="url(#path-7-inside-1_5160_64904)"/>
</g>
</g>
<defs>
<clipPath id="clip0_5160_64904">
<rect width="108" height="80" fill="white"/>
</clipPath>
<clipPath id="clip1_5160_64904">
<rect width="70" height="34.0541" fill="white" transform="translate(19 23)"/>
</clipPath>
</defs>
</svg>
